HIERARCHY
ROOT Hips
{
	OFFSET -0.001795 -0.223333 0.028219
	CHANNELS 6 Xposition Yposition Zposition Zrotation Yrotation Xrotation 
	JOINT LeftUpLeg
	{
		OFFSET 0.069520 -0.091406 -0.006815
		CHANNELS 3 Zrotation Yrotation Xrotation
		JOINT LeftLeg
		{
			OFFSET 0.034277 -0.375199 -0.004496
			CHANNELS 3 Zrotation Yrotation Xrotation
			JOINT LeftFoot
			{
				OFFSET -0.013596 -0.397961 -0.043693
				CHANNELS 3 Zrotation Yrotation Xrotation
				JOINT LeftToe
				{
					OFFSET 0.026358 -0.055791 0.119288
					CHANNELS 3 Zrotation Yrotation Xrotation
					End Site
					{
						OFFSET 0.000000 0.000000 0.000000
					}
				}
			}
		}
	}
	JOINT RightUpLeg
	{
		OFFSET -0.067670 -0.090522 -0.004320
		CHANNELS 3 Zrotation Yrotation Xrotation
		JOINT RightLeg
		{
			OFFSET -0.038290 -0.382569 -0.008850
			CHANNELS 3 Zrotation Yrotation Xrotation
			JOINT RightFoot
			{
				OFFSET 0.015774 -0.398415 -0.042312
				CHANNELS 3 Zrotation Yrotation Xrotation
				JOINT RightToe
				{
					OFFSET -0.025372 -0.048144 0.123348
					CHANNELS 3 Zrotation Yrotation Xrotation
					End Site
					{
						OFFSET 0.000000 0.000000 0.000000
					}
				}
			}
		}
	}
	JOINT Spine
	{
		OFFSET -0.002533 0.108963 -0.026696
		CHANNELS 3 Zrotation Yrotation Xrotation
		JOINT Spine1
		{
			OFFSET 0.005487 0.135180 0.001092
			CHANNELS 3 Zrotation Yrotation Xrotation
			JOINT Spine2
			{
				OFFSET 0.001457 0.052922 0.025425
				CHANNELS 3 Zrotation Yrotation Xrotation
				JOINT Neck
				{
					OFFSET -0.002778 0.213870 -0.042857
					CHANNELS 3 Zrotation Yrotation Xrotation
					JOINT Head
					{
						OFFSET 0.005152 0.064970 0.051349
						CHANNELS 3 Zrotation Yrotation Xrotation
						End Site
						{
							OFFSET 0.000000 0.000000 0.000000
						}
					}
				}
				JOINT LeftShoulder
				{
					OFFSET 0.078845 0.121749 -0.034090
					CHANNELS 3 Zrotation Yrotation Xrotation
					JOINT LeftArm
					{
						OFFSET 0.090977 0.030469 -0.008868
						CHANNELS 3 Zrotation Yrotation Xrotation
						JOINT LeftForeArm
						{
							OFFSET 0.259612 -0.012772 -0.027456
							CHANNELS 3 Zrotation Yrotation Xrotation
							JOINT LeftHand
							{
								OFFSET 0.249234 0.008986 -0.001171
								CHANNELS 3 Zrotation Yrotation Xrotation
								End Site
								{
									OFFSET 0.000000 0.000000 0.000000
								}
							}
						}
					}
				}
				JOINT RightShoulder
				{
					OFFSET -0.081759 0.118833 -0.038615
					CHANNELS 3 Zrotation Yrotation Xrotation
					JOINT RightArm
					{
						OFFSET -0.096012 0.032551 -0.009143
						CHANNELS 3 Zrotation Yrotation Xrotation
						JOINT RightForeArm
						{
							OFFSET -0.253742 -0.013329 -0.021401
							CHANNELS 3 Zrotation Yrotation Xrotation
							JOINT RightHand
							{
								OFFSET -0.255298 0.007772 -0.005559
								CHANNELS 3 Zrotation Yrotation Xrotation
								End Site
								{
									OFFSET 0.000000 0.000000 0.000000
								}
							}
						}
					}
				}
			}
		}
	}
}
MOTION
Frames: 11
Frame Time: 0.050000
0.000000 0.860885 0.000000 -0.845095 -2.564419 -2.938397 20.756075 0.826088 -8.058194 -4.184340 0.699240 24.718092 -2.680598 -15.836516 -13.071965 0.000000 0.000000 0.000000 -16.260928 -0.167628 -14.500084 -0.854556 1.828346 29.546331 3.427864 18.679266 -9.535640 0.000000 0.000000 0.000000 4.397620 -0.983135 12.887187 -2.946087 1.289891 -25.622493 -1.987702 4.153453 25.348819 8.372171 -1.893166 -32.111083 0.000000 0.000000 0.000000 -27.492617 -9.064990 2.962055 -36.325952 -4.993835 -4.249168 -17.901890 -31.656197 6.303045 0.000000 0.000000 0.000000 30.704417 1.034112 -0.327605 41.256693 6.046532 -4.245854 21.244065 29.819550 6.814477 0.000000 0.000000 0.000000 
-0.001213 0.858243 0.002864 -0.464653 -4.647358 -2.517530 22.437172 1.049911 -7.228210 -4.804406 1.096913 24.968593 -5.802689 -21.299060 -10.040176 0.000000 0.000000 0.000000 -16.247419 -0.060860 -16.461063 -2.828418 2.953421 31.360712 4.987732 23.265509 -8.605603 0.000000 0.000000 0.000000 4.247742 -0.865129 11.783765 -3.776557 1.454395 -25.333780 -1.327649 5.414651 25.748997 9.031658 -2.080543 -33.220034 0.000000 0.000000 0.000000 -29.228189 -10.286497 3.802745 -35.338469 -4.953565 -4.155565 -16.522324 -29.374153 5.439365 0.000000 0.000000 0.000000 29.622457 1.898471 0.268825 42.973256 5.793498 -4.461981 19.414974 28.703057 6.070349 0.000000 0.000000 0.000000 
-0.001596 0.855852 0.004307 -0.672220 -2.848353 -2.920336 22.296895 0.784277 -6.272155 -1.793418 -0.105771 25.048483 -5.155151 -23.762851 -13.450969 0.000000 0.000000 0.000000 -16.445572 -0.167214 -14.685340 -2.085189 2.390314 30.342331 4.308049 24.015660 -11.035133 0.000000 0.000000 0.000000 5.186601 -0.979297 11.810990 -4.126682 1.559414 -25.797328 -2.027483 4.905886 27.244606 9.731211 -1.955415 -36.575316 0.000000 0.000000 0.000000 -28.387377 -11.765543 4.584097 -35.143454 -5.748747 -4.014864 -17.860238 -28.584790 5.591382 0.000000 0.000000 0.000000 32.208781 2.040929 0.681111 40.816993 6.861240 -4.274621 16.642553 28.566118 5.358427 0.000000 0.000000 0.000000 
-0.001278 0.856046 0.005092 -0.753818 -2.978800 -2.387793 23.260904 0.721831 -5.293654 -1.167839 -0.288385 23.429405 -7.038258 -26.613291 -11.267542 0.000000 0.000000 0.000000 -17.695595 -0.245785 -14.421465 -1.821442 2.222546 29.502937 5.341804 26.293906 -10.069699 0.000000 0.000000 0.000000 6.114681 -1.068209 11.661146 -5.389320 1.840642 -26.207618 -2.242987 5.030959 26.669474 10.246210 -1.986882 -37.681216 0.000000 0.000000 0.000000 -27.764854 -11.309804 4.229955 -34.418249 -6.191112 -3.777363 -18.901073 -27.714125 5.651469 0.000000 0.000000 0.000000 32.595473 1.650000 0.408915 41.476630 6.929530 -4.269505 17.171748 27.007890 5.168092 0.000000 0.000000 0.000000 
0.000136 0.856022 0.005067 -0.884542 -2.878235 -2.129866 23.073906 0.672300 -5.150933 -0.210878 -0.599994 23.081803 -6.450135 -25.548017 -11.774132 0.000000 0.000000 0.000000 -17.944717 -0.251025 -14.120414 -1.436430 1.982553 28.447420 5.391259 24.992663 -9.113348 0.000000 0.000000 0.000000 6.292519 -1.087377 11.595713 -5.253346 1.814364 -25.890482 -2.511831 5.538871 26.515317 10.387513 -1.882362 -38.208252 0.000000 0.000000 0.000000 -28.292646 -11.718497 4.245634 -33.934730 -6.079233 -3.666485 -20.383100 -27.936062 6.046050 0.000000 0.000000 0.000000 33.950181 1.671004 0.661814 40.315132 7.578102 -4.083376 16.745277 26.839186 5.041499 0.000000 0.000000 0.000000 
0.002954 0.856266 0.004196 -1.178107 -2.588718 -2.028376 22.920228 0.619240 -5.064583 0.477903 -0.849619 23.308374 -6.595243 -25.766016 -11.552971 0.000000 0.000000 0.000000 -18.088074 -0.266204 -13.785665 -1.430421 1.896461 27.691627 5.729194 24.889607 -8.299881 0.000000 0.000000 0.000000 6.570541 -1.136640 11.738770 -5.522037 1.876830 -25.985887 -2.474964 5.093924 26.648846 9.814799 -1.563634 -38.893477 0.000000 0.000000 0.000000 -28.032365 -11.505133 4.218489 -34.492342 -6.362426 -3.695213 -21.194838 -28.272695 6.354379 0.000000 0.000000 0.000000 33.522259 1.924493 0.743188 40.999713 7.181487 -4.214963 17.400171 26.668764 5.155860 0.000000 0.000000 0.000000 
0.006944 0.856988 0.003249 -1.196901 -2.730354 -1.807333 22.463949 0.628323 -5.346969 1.087108 -1.045202 23.527254 -6.548197 -26.091922 -11.957808 0.000000 0.000000 0.000000 -18.004604 -0.245604 -13.908303 -1.671926 1.956898 27.229216 6.144596 25.685186 -7.862395 0.000000 0.000000 0.000000 6.581967 -1.136527 11.697588 -5.571563 1.887873 -25.841482 -2.519637 5.215236 26.619486 10.030480 -1.615041 -39.160780 0.000000 0.000000 0.000000 -28.035600 -11.626756 4.285084 -34.532090 -6.505494 -3.656896 -22.089973 -28.963850 6.757579 0.000000 0.000000 0.000000 33.811775 1.995190 0.806896 40.912994 7.236565 -4.202521 17.578157 26.618174 5.189758 0.000000 0.000000 0.000000 
0.011930 0.857501 0.002842 -1.339210 -2.880222 -1.659346 22.391183 0.636894 -5.401232 1.197490 -1.094951 24.196252 -6.789824 -26.981067 -12.123304 0.000000 0.000000 0.000000 -17.749233 -0.213417 -14.059957 -2.360140 2.196902 27.054850 6.865591 27.027210 -7.126030 0.000000 0.000000 0.000000 6.463706 -1.110881 11.532669 -5.476574 1.860029 -25.959815 -2.480789 5.169271 26.610843 10.005966 -1.629809 -39.116928 0.000000 0.000000 0.000000 -27.901159 -11.254367 4.110695 -34.630610 -6.601786 -3.665435 -23.036542 -29.714542 7.217251 0.000000 0.000000 0.000000 33.688388 1.765436 0.566270 41.100103 6.844730 -4.307774 18.240486 26.432098 5.299959 0.000000 0.000000 0.000000 
0.017518 0.857642 0.003227 -1.636805 -3.443443 -1.804497 22.551007 0.661643 -5.001772 1.316344 -1.115788 24.609926 -7.161636 -28.251097 -12.350227 0.000000 0.000000 0.000000 -17.552346 -0.168920 -14.274461 -2.530753 2.277537 26.795368 7.759355 28.138667 -5.849396 0.000000 0.000000 0.000000 6.606357 -1.107056 11.443407 -5.426869 1.839098 -26.265349 -2.535268 5.665016 26.796069 10.531553 -1.861780 -39.017248 0.000000 0.000000 0.000000 -27.354535 -11.157011 4.009743 -34.874079 -6.339637 -3.766041 -24.125197 -30.020535 7.594862 0.000000 0.000000 0.000000 33.705488 1.186073 0.216360 41.192471 6.491139 -4.461434 18.960361 26.010735 5.384123 0.000000 0.000000 0.000000 
0.023572 0.857201 0.003977 -1.747831 -4.152640 -1.817396 22.399776 0.699440 -4.815305 1.141475 -1.026617 25.262771 -7.024779 -28.681135 -13.116405 0.000000 0.000000 0.000000 -17.837014 -0.141581 -14.303917 -2.438614 2.259495 26.384481 8.800763 29.922742 -4.763401 0.000000 0.000000 0.000000 6.679693 -1.087291 11.255426 -5.698926 1.890796 -26.362857 -2.557175 6.031333 26.532539 10.896376 -2.084589 -38.590527 0.000000 0.000000 0.000000 -26.873623 -10.984705 3.923641 -34.656215 -6.168484 -3.781554 -25.019588 -30.321228 7.922069 0.000000 0.000000 0.000000 34.193783 0.636956 -0.251253 40.903801 5.742184 -4.643378 19.875075 25.722295 5.525004 0.000000 0.000000 0.000000 
0.030177 0.856517 0.004747 -2.001231 -4.374082 -2.072647 22.479269 0.710879 -4.581937 1.119977 -1.027587 25.938965 -7.081208 -29.214684 -13.411938 0.000000 0.000000 0.000000 -17.991580 -0.140671 -14.133614 -2.451752 2.246532 26.010189 9.203102 30.259800 -4.141702 0.000000 0.000000 0.000000 6.818388 -1.081409 11.130146 -5.777707 1.903104 -26.620656 -2.537616 6.272958 26.529653 11.203290 -2.226141 -38.445935 0.000000 0.000000 0.000000 -26.414675 -10.880117 3.817130 -34.891626 -5.894779 -3.868446 -25.734765 -30.206835 8.086498 0.000000 0.000000 0.000000 34.400568 -0.459999 -1.020972 40.810053 5.032969 -4.865163 20.791547 25.223576 5.625856 0.000000 0.000000 0.000000 
